# AST/ASF file generated using VICON BodyLanguage
# -----------------------------------------------
:version 1.10
:name VICON
:units
  mass 1.0
  length 0.45
  angle deg
:documentation
   .ast/.asf automatically generated from VICON data using
   VICON BodyBuilder and BodyLanguage model FoxedUp or BRILLIANT.MOD
:root
   order TX TY TZ RX RY RZ
   axis XYZ
   position 0 0 0  
   orientation 0 0 0 
:bonedata
  begin
     id 1 
     name lhipjoint
     direction 0.535335 -0.74333 0.401095 
     length 2.04549 
     axis 0 0 0  XYZ
  end
  begin
     id 2 
     name lfemur
     direction 0.34202 -0.939693 0  
     length 6.95643  
     axis 0 0 20  XYZ
    dof rx ry rz
    limits (-160.0 20.0)
           (-70.0 70.0)
           (-60.0 70.0)
  end
  begin
     id 3 
     name ltibia
     direction 0.34192 -0.939729 0   
     length 5.55969   
     axis 0 0 20   XYZ
    dof rx
    limits (-10.0 170.0)
  end
  begin
     id 4 
     name lfoot
     direction 0.216943 -0.596046 0.773088   
     length 2.27918   
     axis -90 7.62852e-016 20   XYZ
    dof rx rz
    limits (-45.0 90.0)
           (-70.0 20.0)
  end
  begin
     id 5 
     name ltoes
     direction 1.53519e-011 -4.21748e-011 1   
     length 1.05562   
     axis -90 7.62852e-016 20   XYZ
    dof rx
    limits (-90.0 20.0)
  end
  begin
     id 6 
     name rhipjoint
     direction -0.576368 -0.719173 0.38806   
     length 2.1142  
     axis 0 0 0  XYZ 
  end
  begin
     id 7 
     name rfemur
     direction -0.34202 -0.939693 0   
     length 7.07928   
     axis 0 0 -20   XYZ
    dof rx ry rz
    limits (-160.0 20.0)
           (-70.0 70.0)
           (-70.0 60.0)
  end
  begin
     id 8 
     name rtibia
     direction -0.34202 -0.939693 0   
     length 5.79974   
     axis 0 0 -20   XYZ
    dof rx
    limits (-10.0 170.0)
 end
 begin
     id 9 
     name rfoot
     direction -0.189288 -0.520065 0.832888   
     length 2.42173  
     axis -90 -7.62852e-016 -20   XYZ
    dof rx rz
    limits (-45.0 90.0)
           (-20.0 70.0)
  end
  begin
     id 10 
     name rtoes
     direction -1.53574e-011 -4.21658e-011 1   
     length 1.14469   
     axis -90 -7.62852e-016 -20   XYZ
    dof rx
    limits (-90.0 20.0)
  end
  begin
     id 11 
     name lowerback
     direction -0.00135702 0.993803 0.111144   
     length 1.91308   
     axis 0 0 0   XYZ
    dof rx ry rz
    limits (-20.0 45.0)
           (-30.0 30.0)
           (-30.0 30.0)
  end
  begin
     id 12 
     name upperback
     direction -0.0056745 0.999813 0.0184631   
     length 1.9212   
     axis 0 0 0   XYZ
    dof rx ry rz
    limits (-20.0 45.0)
           (-30.0 30.0)
           (-30.0 30.0)
  end
  begin
     id 13 
     name thorax
     direction -0.00733434 0.999426 -0.0330788   
     length 1.94196   
     axis 0 0 0   XYZ
    dof rx ry rz
    limits (-20.0 45.0)
           (-30.0 30.0)
           (-30.0 30.0)
  end
  begin
     id 14 
     name lowerneck
     direction 0.0563074 0.996944 -0.0541571   
     length 2.34257   
     axis 0 0 0   XYZ
    dof rx ry rz
    limits (-20.0 45.0)
           (-30.0 30.0)
           (-30.0 30.0)
  end
  begin
     id 15 
     name upperneck
     direction -0.0544519 0.976166 -0.210085   
     length 2.32506   
     axis 0 0 0   XYZ
    dof rx ry rz
    limits (-20.0 45.0)
           (-30.0 30.0)
           (-30.0 30.0)
  end
  begin
     id 16
     name head
     direction -0.0226035 0.997615 -0.0652205  
     length 2.3648  
     axis 0 0 0   XYZ
    dof rx ry rz
    limits (-20.0 45.0)
           (-30.0 30.0)
           (-30.0 30.0)
  end
  begin
     id 17 
     name lclavicle
     direction 0.92109 0.381297 -0.0787716  
     length 4.0487  
     axis 0 0 0   XYZ
    dof ry rz
    limits (-20.0 10.0)
           (0.0 20.0)
  end
  begin
     id 18 
     name lhumerus
     direction 1 -4.48986e-011 3.56724e-027   
     length 4.94991   
     axis 180 -30 -90   XYZ
    dof rx ry rz
    limits (-60.0 90.0)
           (-90.0 90.0)
           (-90.0 90.0)
  end
  begin
     id 19
     name lradius
     direction 1 -4.48981e-011 8.62147e-027   
     length 2.7606   
     axis 180 -30 -90   XYZ
    dof rx
    limits (-10.0 170.0)
  end
  begin
     id 20
     name lwrist
     direction 1 -4.48989e-011 1.59799e-026   
     length 1.3803   
     axis -1.17785e-014 90 90   XYZ
    dof ry
    limits (-180.0 0.0)
 end
  begin
     id 21 
     name lhand
     direction 1 -4.48896e-011 3.19599e-026   
     length 0.843936   
     axis -2.03931e-014 90 90   XYZ
    dof rx rz
    limits (-90.0 90.0)
           (-45.0 45.0)
  end
  begin
     id 22 
     name lfingers
     direction 1 -4.48887e-011 6.39197e-026   
     length 0.680403   
     axis -4.07862e-014 90 90   XYZ
    dof rx
    limits (0.0 90.0)
  end
  begin
     id 23
     name lthumb
     direction 0.707107 -6.348e-011 0.707107   
     length 0.976926   
     axis -90 45 2.85299e-015   XYZ
    dof rx rz
    limits (-45.0 45.0)
           (-45.0 45.0)
  end
  begin
     id 24 
     name rclavicle
     direction -0.951104 0.307692 -0.026953   
     length 4.21801  
     axis 0 0 0   XYZ 
    dof ry rz
    limits (-10.0 20.0)
           (-20.0 0.0)
  end
  begin
     id 25 
     name rhumerus
     direction -1 -4.4896e-011 -1.8171e-018  
     length 4.32982   
     axis 180 30 90   XYZ
    dof rx ry rz
    limits (-90.0 60.0)
           (-90.0 90.0)
           (-90.0 90.0)
  end
  begin
     id 26 
     name rradius
     direction -1 -4.48959e-011 8.25165e-027   
     length 3.20057   
     axis 180 30 90   XYZ
    dof rx
    limits (-10.0 170.0)
  end
  begin
     id 27 
     name rwrist
     direction -1 -4.48997e-011 1.59799e-026   
     length 1.60029   
     axis -1.17785e-014 -90 -90   XYZ
    dof ry
    limits (-180.0 0.0)
  end
  begin
     id 28
     name rhand
     direction -1 -4.49023e-011 3.19599e-026   
     length 0.960433   
     axis -2.03931e-014 -90 -90   XYZ
    dof rx rz
    limits (-90.0 90.0)
           (-45.0 45.0)
  end
  begin
     id 29
     name rfingers
     direction -1 -4.48802e-011 6.39197e-026   
     length 0.774326   
     axis -4.07862e-014 -90 -90   XYZ
    dof rx
    limits (0.0 90.0)
  end
  begin
     id 30
     name rthumb
     direction -0.707107 -6.34876e-011 0.707107   
     length 1.11178   
     axis -90 -45 -2.85299e-015   XYZ
    dof rx rz
    limits (-45.0 45.0)
           (-45.0 45.0)
  end
:hierarchy
  begin
    root lhipjoint rhipjoint lowerback
    lhipjoint lfemur
    lfemur ltibia
    ltibia lfoot
    lfoot ltoes
    rhipjoint rfemur
    rfemur rtibia
    rtibia rfoot
    rfoot rtoes
    lowerback upperback
    upperback thorax
    thorax lowerneck lclavicle rclavicle
    lowerneck upperneck
    upperneck head
    lclavicle lhumerus
    lhumerus lradius
    lradius lwrist
    lwrist lhand lthumb
    lhand lfingers
    rclavicle rhumerus
    rhumerus rradius
    rradius rwrist
    rwrist rhand rthumb
    rhand rfingers
end

#!OML:ASF C:\KaitlinTest1\Natural Motions\Nikki\Session 2\Nikki.ASF
:FULLY-SPECIFIED
:DEGREES
591
root -12.2965 16.5149 4.0209 34.8334 92.1148 28.9698
lowerback -9.792 -2.06097 0.699379
upperback -4.0467 -2.65034 -0.43585
thorax 1.23055 -1.27347 -1.12198
lowerneck -6.85919 -11.5631 -9.49201
upperneck 5.94832 41.4687 5.46117
head 161.82 64.9663 -42.6674
rclavicle 7.82715e-015 6.75868e-015
rhumerus -37.9182 -22.2442 -84.8782
rradius 16.03
rwrist 21.8448
rhand -35.9362 1.44059
rfingers 7.12502
rthumb -9.04828 -28.3453
lclavicle 7.82715e-015 6.75868e-015
lhumerus -38.2128 15.327 85.0621
lradius 18.366
lwrist -30.3316
lhand -33.9984 3.87332
lfingers 7.12502
lthumb -7.17801 33.7316
rfemur -6.12062 -20.1705 20.5292
rtibia 16.4349
rfoot -12.5934 8.08779
rtoes 2.78299e-014
lfemur -10.0871 15.9924 -17.3809
ltibia 20.352
lfoot -8.21629 -19.6971
ltoes -1.59028e-015
592
root -12.2948 16.5158 4.01991 35.7101 92.1146 29.8695
lowerback -9.77921 -2.05415 0.723999
upperback -4.03409 -2.64432 -0.430961
thorax 1.23585 -1.27088 -1.12989
lowerneck -6.86566 -11.5727 -9.48244
upperneck 5.93618 41.4297 5.44829
head 161.76 64.9877 -42.703
rclavicle 5.8393e-015 1.19271e-015
rhumerus -37.9392 -22.2422 -84.8677
rradius 16.0361
rwrist 21.899
rhand -35.9242 1.45586
rfingers 7.12502
rthumb -9.03662 -28.3306
lclavicle 5.8393e-015 1.19271e-015
lhumerus -38.2059 15.5863 84.909
lradius 18.3332
lwrist -30.559
lhand -34.0256 3.78296
lfingers 7.12502
lthumb -7.20428 33.6403
rfemur -6.08102 -20.1475 20.5416
rtibia 16.4201
rfoot -12.5817 8.10367
rtoes 1.35174e-014
lfemur -10.0619 16.0518 -17.3457
ltibia 20.3587
lfoot -8.25822 -19.7385
ltoes 4.6118e-014
593
root -12.293 16.5152 4.01979 36.6342 92.1399 30.8324
lowerback -9.76573 -2.0632 0.743542
upperback -4.01536 -2.65938 -0.415278
thorax 1.24735 -1.27873 -1.12616
lowerneck -6.8502 -11.5663 -9.48524
upperneck 5.92929 41.3928 5.4374
head 161.715 65.0308 -42.7273
rclavicle -1.30701e-014 -3.97569e-016
rhumerus -37.9005 -22.1035 -84.9852
rradius 16.0626
rwrist 21.6204
rhand -35.937 1.29411
rfingers 7.12502
rthumb -9.04902 -28.4918
lclavicle -1.30701e-014 -3.97569e-016
lhumerus -38.2038 15.7279 84.8024
lradius 18.3048
lwrist -30.7973
lhand -34.0356 3.72781
lfingers 7.12502
lthumb -7.21394 33.5848
rfemur -6.02317 -20.0924 20.5806
rtibia 16.4097
rfoot -12.6002 8.0286
rtoes 4.77083e-015
lfemur -10.0128 16.0402 -17.2742
ltibia 20.3626
lfoot -8.25339 -19.7396
ltoes 8.11041e-014
594
root -12.2925 16.5151 4.01802 35.9422 92.0958 30.1158
lowerback -9.7468 -2.05548 0.702131
upperback -4.05632 -2.64306 -0.442486
thorax 1.19558 -1.27023 -1.12761
lowerneck -6.77136 -11.5793 -9.45791
upperneck 5.92412 41.2756 5.43276
head 161.607 65.1533 -42.7901
rclavicle -2.26615e-014 -8.34896e-015
rhumerus -37.9907 -22.2069 -84.9217
rradius 16.0485
rwrist 21.7691
rhand -35.9431 1.35466
rfingers 7.12502
rthumb -9.05494 -28.431
lclavicle -2.26615e-014 -8.34896e-015
lhumerus -38.2624 15.7715 84.7082
lradius 18.3094
lwrist -30.9985
lhand -33.9977 3.8389
lfingers 7.12502
lthumb -7.17731 33.6972
rfemur -6.04184 -20.0472 20.5337
rtibia 16.3952
rfoot -12.5905 8.00445
rtoes -7.95139e-016
lfemur -10.0301 16.0279 -17.3348
ltibia 20.3581
lfoot -8.25062 -19.7114
ltoes 2.06736e-014
595
root -12.2915 16.5144 4.01701 36.0784 92.0816 30.2397
lowerback -9.77946 -2.05189 0.700861
upperback -4.05198 -2.63797 -0.450728
thorax 1.21773 -1.2675 -1.13624
lowerneck -6.75385 -11.5751 -9.45812
upperneck 5.92364 41.2565 5.43252
head 161.596 65.1858 -42.7972
rclavicle 1.35919e-014 -7.95139e-016
rhumerus -37.9936 -22.0423 -85.0325
rradius 16.105
rwrist 21.4921
rhand -35.9307 1.34265
rfingers 7.12502
rthumb -9.04294 -28.4435
lclavicle 1.35919e-014 -7.95139e-016
lhumerus -38.2227 15.8713 84.6262
lradius 18.2536
lwrist -31.1335
lhand -33.9265 3.7395
lfingers 7.12502
lthumb -7.10862 33.6001
rfemur -6.05233 -20.0458 20.5271
rtibia 16.3928
rfoot -12.5854 8.01168
rtoes -1.27222e-014
lfemur -10.0278 16.0384 -17.3474
ltibia 20.349
lfoot -8.26227 -19.7043
ltoes -7.95139e-015
596
root -12.2911 16.5158 4.01619 36.8224 92.0696 30.9711
lowerback -9.78204 -2.05059 0.715715
upperback -4.07479 -2.63672 -0.445338
thorax 1.19511 -1.26681 -1.13842
lowerneck -6.68995 -11.569 -9.468
upperneck 5.94017 41.2395 5.43067
head 161.543 65.2099 -42.8197
rclavicle 4.82053e-015 -2.5842e-015
rhumerus -38.0565 -21.9272 -85.0611
rradius 16.1484
rwrist 21.3983
rhand -35.8931 1.28344
rfingers 7.12502
rthumb -9.00666 -28.5043
lclavicle 4.82053e-015 -2.5842e-015
lhumerus -38.2699 16.0682 84.4921
lradius 18.2265
lwrist -31.3924
lhand -34.011 3.71148
lfingers 7.12502
lthumb -7.19022 33.5693
rfemur -6.07875 -20.0225 20.5489
rtibia 16.4002
rfoot -12.592 8.02572
rtoes -3.26007e-014
lfemur -10.0339 16.0286 -17.3349
ltibia 20.3301
lfoot -8.24327 -19.668
ltoes 1.59028e-014
597
root -12.2906 16.5149 4.01498 36.5023 92.0616 30.6416
lowerback -9.7875 -2.04012 0.706402
upperback -4.07858 -2.62127 -0.465706
thorax 1.194 -1.25906 -1.15273
lowerneck -6.67774 -11.6064 -9.42705
upperneck 5.92944 41.153 5.41327
head 161.327 65.2987 -42.9746
rclavicle 1.51573e-015 -4.37326e-015
rhumerus -38.0949 -22.1163 -84.9598
rradius 16.0934
rwrist 21.6316
rhand -35.8875 1.27622
rfingers 7.12502
rthumb -9.00128 -28.5117
lclavicle 1.51573e-015 -4.37326e-015
lhumerus -38.2349 15.9709 84.5316
lradius 18.2298
lwrist -31.2135
lhand -34.1583 3.67683
lfingers 7.12502
lthumb -7.33235 33.5298
rfemur -6.07133 -20.024 20.533
rtibia 16.3852
rfoot -12.5712 8.01592
rtoes 1.74931e-014
lfemur -10.0353 16.0139 -17.3589
ltibia 20.321
lfoot -8.23417 -19.6442
ltoes -9.54166e-015
